HIERARCHY
ROOT SpineBase
{
  OFFSET 0.000000 0.000000 0.000000
  CHANNELS 6 Xposition Yposition Zposition Zrotation Xrotation Yrotation
  JOINT SpineMid
  {
    OFFSET 0.000000 31.600230 0.000000
    CHANNELS 3 Zrotation Xrotation Yrotation
    JOINT SpineShoulder
    {
      OFFSET 0.183549 23.607878 -0.661992
      CHANNELS 3 Zrotation Xrotation Yrotation
      JOINT Neck
      {
        OFFSET 0.034802 7.851167 -0.509836
        CHANNELS 3 Zrotation Xrotation Yrotation
        JOINT Head
        {
          OFFSET 1.452185 11.579684 2.628095
          CHANNELS 3 Zrotation Xrotation Yrotation
          End Site
          {
            OFFSET 0 0 0
          }
        }
      }
      JOINT ShoulderLeft
      {
        OFFSET -11.420373 -1.181723 -9.378993
        CHANNELS 3 Zrotation Xrotation Yrotation
        JOINT ElbowLeft
        {
          OFFSET -4.163625 -24.456313 -3.655920
          CHANNELS 3 Zrotation Xrotation Yrotation
          JOINT WristLeft
          {
            OFFSET -3.092892 -22.876556 -5.490197
            CHANNELS 3 Zrotation Xrotation Yrotation
            JOINT HandLeft
            {
              OFFSET 1.546417 -6.597466 0.201995
              CHANNELS 3 Zrotation Xrotation Yrotation
              JOINT HandTipLeft
              {
                OFFSET -1.116540 -6.709500 -0.737684
                CHANNELS 3 Zrotation Xrotation Yrotation
                End Site
                {
                  OFFSET 0 0 0
                }
              }
              JOINT ThumbLeft
              {
                OFFSET 1.730284 0.952561 -1.859247
                CHANNELS 3 Zrotation Xrotation Yrotation
                End Site
                {
                  OFFSET 0 0 0
                }
              }
            }
          }
        }
      }
      JOINT ShoulderRight
      {
        OFFSET 10.855156 -4.265602 1.449268
        CHANNELS 3 Zrotation Xrotation Yrotation
        JOINT ElbowRight
        {
          OFFSET 3.428855 -23.438668 5.625316
          CHANNELS 3 Zrotation Xrotation Yrotation
          JOINT WristRight
          {
            OFFSET 6.467263 -24.094767 -0.378810
            CHANNELS 3 Zrotation Xrotation Yrotation
            JOINT HandRight
            {
              OFFSET 0.299450 -4.099276 -0.268317
              CHANNELS 3 Zrotation Xrotation Yrotation
              JOINT HandTipRight
              {
                OFFSET -0.547144 -5.695248 -0.045788
                CHANNELS 3 Zrotation Xrotation Yrotation
                End Site
                {
                  OFFSET 0 0 0
                }
              }
              JOINT ThumbRight
              {
                OFFSET 1.833254 0.290710 -2.928575
                CHANNELS 3 Zrotation Xrotation Yrotation
                End Site
                {
                  OFFSET 0 0 0
                }
              }
            }
          }
        }
      }
    }
  }
  JOINT HipLeft
  {
    OFFSET -5.980116 1.651487 -5.150640
    CHANNELS 3 Zrotation Xrotation Yrotation
    JOINT KneeLeft
    {
      OFFSET -9.551273 -20.744247 -10.100380
      CHANNELS 3 Zrotation Xrotation Yrotation
      JOINT AnkleLeft
      {
        OFFSET -6.754347 -24.661433 6.533003
        CHANNELS 3 Zrotation Xrotation Yrotation
        JOINT FootLeft
        {
          OFFSET -7.742761 -2.218910 -8.754345
          CHANNELS 3 Zrotation Xrotation Yrotation
          End Site
          {
            OFFSET 0 0 0
          }
        }
      }
    }
  }
  JOINT HipRight
  {
    OFFSET 5.345955 0.743517 -1.478279
    CHANNELS 3 Zrotation Xrotation Yrotation
    JOINT KneeRight
    {
      OFFSET -5.697313 -22.309612 -7.127495
      CHANNELS 3 Zrotation Xrotation Yrotation
      JOINT AnkleRight
      {
        OFFSET 2.122107 -26.553628 4.906181
        CHANNELS 3 Zrotation Xrotation Yrotation
        JOINT FootRight
        {
          OFFSET 8.424632 2.291086 3.241385
          CHANNELS 3 Zrotation Xrotation Yrotation
          End Site
          {
            OFFSET 0 0 0
          }
        }
      }
    }
  }
}
MOTION
Frames: 14
Frame Time: 0.033333
38.665165 56.918489 376.347737 -0.000000 0.000000 -17.964751 -0.000000 0.000000 17.964751 -0.000000 0.000000 0.000000 -0.000000 0.000000 0.000000 0.000000 0.000000 0.000000 -0.000000 0.000000 0.000000 -0.000000 0.000000 0.000000 -0.000000 0.000000 0.000000 -0.000000 0.000000 0.000000 0.000000 0.000000 0.000000 0.000000 0.000000 0.000000 -0.000000 0.000000 0.000000 -0.000000 0.000000 0.000000 -0.000000 0.000000 0.000000 -0.000000 0.000000 0.000000 0.000000 0.000000 0.000000 0.000000 0.000000 0.000000 -0.000000 0.000000 17.964751 -0.000000 0.000000 0.000000 -0.000000 0.000000 0.000000 0.000000 0.000000 0.000000 -0.000000 0.000000 17.964751 -0.000000 0.000000 0.000000 -0.000000 0.000000 0.000000 0.000000 0.000000 0.000000
38.548665 57.060270 376.473629 -0.296071 -0.012481 -17.951772 0.277811 0.103126 17.951490 -0.000000 0.000000 0.000000 -0.000000 0.000000 0.000000 0.000000 0.000000 0.000000 -0.000000 0.000000 0.000000 3.009579 -0.044826 -0.717811 -6.013572 -0.350538 0.542003 8.385137 3.665381 -1.179827 0.000000 0.000000 0.000000 0.000000 0.000000 0.000000 -0.000000 0.000000 0.000000 -2.303843 1.825566 0.565884 -1.918519 -2.886787 -0.470032 6.971436 3.747477 -0.633501 0.000000 0.000000 0.000000 0.000000 0.000000 0.000000 1.529921 -1.656073 18.608238 -1.807715 4.274888 -1.485365 1.659621 0.427955 -9.151711 0.000000 0.000000 0.000000 -2.498110 2.507978 17.820590 5.194624 -4.510169 0.956104 -16.332247 -4.831159 29.779374 0.000000 0.000000 0.000000
38.384573 57.166953 376.556037 -0.620294 -0.002192 -17.960658 0.589393 0.193358 17.959651 -0.000000 0.000000 0.000000 0.742075 -0.747368 -0.070015 0.000000 0.000000 0.000000 -0.000000 0.000000 0.000000 5.780644 -0.106227 -1.378413 -11.254844 -0.506085 1.105389 15.644172 6.246900 -2.474655 0.000000 0.000000 0.000000 0.000000 0.000000 0.000000 -0.000000 0.000000 0.000000 -4.456725 3.446897 1.141067 -3.091042 -5.322787 -1.103471 12.954448 6.955085 -1.434600 0.000000 0.000000 0.000000 0.000000 0.000000 0.000000 3.153685 -3.268388 19.271135 -3.196926 8.358971 -2.676182 3.306284 1.171636 -18.852963 0.000000 0.000000 0.000000 -4.254672 4.721151 17.717719 9.062848 -8.313568 2.167345 -27.651927 -16.364723 60.933820 0.000000 0.000000 0.000000
38.172887 57.238538 376.594962 -0.972004 0.031071 -17.989020 0.934090 0.270627 17.987078 -0.000000 0.000000 0.000000 0.936077 -0.979577 -0.081845 0.000000 0.000000 0.000000 0.807362 0.099818 -0.138538 7.463548 -0.254266 -1.821756 -15.663640 -0.422598 1.698034 21.793210 7.796598 -3.680283 0.000000 0.000000 0.000000 0.000000 0.000000 0.000000 -0.000000 0.000000 0.000000 -6.445228 4.859357 1.704787 -3.626758 -7.347065 -1.771583 17.904303 9.492274 -2.273388 0.000000 0.000000 0.000000 0.000000 0.000000 0.000000 4.860764 -4.818046 19.944955 -4.220381 12.245417 -3.651663 4.909734 1.951866 -28.334636 0.000000 0.000000 0.000000 -5.307630 6.659122 17.598557 11.666616 -11.481607 3.389730 -31.005504 -23.610058 78.164385 0.000000 0.000000 0.000000
37.913608 57.275026 376.590404 -1.350355 0.087377 -18.034772 1.311072 0.334964 18.031969 -0.000000 0.000000 0.000000 1.014527 -1.119271 -0.080248 0.000000 0.000000 0.000000 0.935851 0.151331 -0.167100 9.507930 -0.356417 -2.301722 -19.191260 -0.053845 2.329407 26.860041 8.386436 -4.649485 0.000000 0.000000 0.000000 0.000000 0.000000 0.000000 0.677390 0.410875 0.220254 -8.908453 5.691431 1.955616 -3.611706 -9.002041 -2.386124 21.734143 11.246332 -3.011485 0.000000 0.000000 0.000000 0.000000 0.000000 0.000000 6.638730 -6.287702 20.620677 -4.905781 15.931914 -4.477179 6.333171 2.567359 -36.940722 0.000000 0.000000 0.000000 -5.687016 8.346047 17.418019 13.034281 -14.107818 4.450505 -31.931857 -26.600930 86.403708 0.000000 0.000000 0.000000
37.606737 57.276416 376.542364 -1.754329 0.166654 -18.096149 1.719331 0.386499 18.092901 -0.000000 0.000000 0.000000 0.978813 -1.167611 -0.065971 0.000000 0.000000 0.000000 0.994042 0.212123 -0.186778 11.276264 -0.451312 -2.706782 -21.793699 0.649101 3.008102 30.879775 8.075664 -5.280419 0.000000 0.000000 0.000000 0.000000 0.000000 0.000000 -0.000000 0.000000 0.000000 -9.891594 7.061950 2.725847 -3.107166 -10.324361 -2.888852 24.335771 12.130812 -3.516944 0.000000 0.000000 0.000000 0.000000 0.000000 0.000000 8.473701 -7.662176 21.288978 -5.259102 19.418395 -5.209818 7.418255 2.945687 -44.326182 0.000000 0.000000 0.000000 -5.411059 9.803893 17.140365 13.167293 -16.279886 5.229848 -32.195712 -27.521096 89.985486 0.000000 0.000000 0.000000
37.145715 57.233517 376.401084 -2.284987 0.291377 -18.141361 1.200686 0.201993 18.113322 1.081152 -0.108858 0.032193 0.726346 -0.965839 -0.037705 0.000000 0.000000 0.000000 -0.000000 0.000000 0.000000 14.152902 0.135827 -3.505958 -23.617056 2.671286 4.227079 34.871996 4.820651 -5.042964 0.000000 0.000000 0.000000 0.000000 0.000000 0.000000 -0.000000 0.000000 0.000000 -11.848340 7.930739 3.228872 -1.347661 -12.718614 -3.460648 25.929269 16.999402 -4.891217 0.000000 0.000000 0.000000 0.000000 0.000000 0.000000 10.644475 -8.690347 21.691763 -5.608558 22.095097 -5.524153 7.542162 6.531715 -52.530715 0.000000 0.000000 0.000000 -3.105092 10.838063 16.366521 9.763184 -17.837743 5.139665 -20.463558 -23.149740 93.611457 0.000000 0.000000 0.000000
36.677288 57.163379 376.247067 -2.811483 0.433958 -18.202807 1.372004 0.210017 18.168459 0.460872 -0.243987 -0.022808 1.435605 -0.728782 0.059696 0.000000 0.000000 0.000000 0.981784 0.040605 0.063232 15.642742 0.384986 -3.951219 -25.022509 5.101629 5.437887 37.399731 0.535829 -3.810884 0.000000 0.000000 0.000000 0.000000 0.000000 0.000000 0.981784 0.040605 0.063232 -13.368364 8.645819 3.660920 1.978975 -14.515323 -3.593623 21.957095 18.387618 -4.554871 0.000000 0.000000 0.000000 0.000000 0.000000 0.000000 12.764103 -9.873464 22.277058 -5.324585 25.399397 -6.210346 7.461134 9.275587 -59.111983 0.000000 0.000000 0.000000 -0.631442 11.687999 15.567384 6.685962 -19.039662 5.142889 -22.155804 -21.814722 89.352234 0.000000 0.000000 0.000000
36.206358 57.068801 376.056934 -3.309084 0.589230 -18.287036 1.488875 0.212365 18.247435 0.583066 -0.310638 -0.028906 1.245970 -0.010642 0.081080 0.000000 0.000000 0.000000 1.245970 -0.010642 0.081080 15.548788 0.191687 -3.875271 -22.595061 7.664807 6.111336 36.796650 -4.024099 -2.299800 0.000000 0.000000 0.000000 0.000000 0.000000 0.000000 1.245970 -0.010642 0.081080 -14.498348 9.190091 4.002705 3.961622 -15.094959 -3.580653 17.904339 11.523404 -2.579923 0.000000 0.000000 0.000000 0.000000 0.000000 0.000000 14.804620 -11.211175 23.067185 -4.319432 28.907728 -7.266060 7.103947 7.002148 -61.483367 0.000000 0.000000 0.000000 1.677765 12.519326 14.804096 2.597400 -18.732165 4.688773 -38.514829 -16.557945 64.519473 0.000000 0.000000 0.000000
35.843345 56.952316 375.894893 -3.673600 0.727897 -18.260472 1.563547 0.191975 18.218176 0.682402 -0.374308 -0.033417 1.446646 -0.042714 0.094678 0.000000 0.000000 0.000000 2.249099 0.519497 -0.124349 14.179796 -1.098894 -3.168183 -20.708700 8.735099 6.058667 37.215917 -3.913019 -2.522580 0.000000 0.000000 0.000000 0.000000 0.000000 0.000000 1.446646 -0.042714 0.094678 -14.860232 9.330141 4.100841 4.540009 -13.619361 -3.302742 16.961843 7.694200 -1.851064 0.000000 0.000000 0.000000 0.000000 0.000000 0.000000 16.160534 -12.033006 23.470787 -2.849572 31.134928 -8.165127 6.953350 -0.960018 -60.302297 0.000000 0.000000 0.000000 2.298608 13.503787 14.387096 1.671933 -19.665632 4.826438 -42.954096 -7.299582 48.345757 0.000000 0.000000 0.000000
35.666762 56.831186 375.819684 -3.804285 0.757349 -18.339566 1.529088 0.205300 18.294650 0.732834 -0.415011 -0.036088 1.555922 -0.052343 0.101990 0.000000 0.000000 0.000000 2.918715 0.553956 -0.211064 12.966818 -1.758122 -2.750487 -19.041688 9.299177 5.845648 37.504207 -1.791012 -3.664450 0.000000 0.000000 0.000000 0.000000 0.000000 0.000000 1.551161 -1.404977 -0.097114 -14.365804 10.409854 4.496767 2.181820 -11.252669 -3.147127 20.961067 2.002344 -1.220583 0.000000 0.000000 0.000000 0.000000 0.000000 0.000000 16.943213 -12.665638 23.952510 -1.353876 33.168156 -9.216824 7.451969 -12.088340 -54.710227 0.000000 0.000000 0.000000 1.583699 14.579826 14.427711 2.574859 -21.207705 5.242332 -41.758321 -3.732737 43.538492 0.000000 0.000000 0.000000
35.675579 56.723715 375.814870 -3.702238 0.712361 -18.759805 1.369946 0.236620 18.712363 0.701387 -0.443607 -0.040070 0.322543 -0.533219 0.456876 0.000000 0.000000 0.000000 3.377345 0.477425 -0.251205 11.711254 -2.215348 -2.389025 -17.752934 8.778640 5.314826 34.967051 -0.081719 -4.322619 0.000000 0.000000 0.000000 0.000000 0.000000 0.000000 1.614757 -1.949006 -0.174613 -14.587953 10.966668 4.762652 4.434762 -13.712566 -3.281637 18.594603 1.595486 -0.944897 0.000000 0.000000 0.000000 0.000000 0.000000 0.000000 16.955495 -12.576295 24.387817 -1.159442 32.650023 -9.068078 7.739608 -13.744785 -54.374597 0.000000 0.000000 0.000000 0.334613 15.504250 14.949499 4.339502 -22.921251 5.920681 -38.167813 -6.762318 50.137253 0.000000 0.000000 0.000000
35.687674 56.659667 375.835526 -3.623246 0.637042 -18.808223 1.266947 0.261383 18.758205 0.665735 -0.475389 -0.043618 -0.269692 -0.565152 0.610998 0.000000 0.000000 0.000000 3.715146 0.428799 -0.276950 10.991047 -2.468573 -2.199269 -18.896254 7.261326 4.795558 34.364285 2.260257 -4.850044 0.000000 0.000000 0.000000 0.000000 0.000000 0.000000 1.725042 -2.362353 -0.223686 -14.860258 10.896040 4.752936 6.867857 -18.491639 -3.551577 18.903124 10.942610 -2.734244 0.000000 0.000000 0.000000 0.000000 0.000000 0.000000 16.590804 -12.212180 24.226821 -2.032566 30.657592 -8.140683 9.410851 -16.752544 -52.485838 0.000000 0.000000 0.000000 -2.622230 16.772399 15.673763 9.601181 -25.467453 7.680835 -31.968552 -12.411977 65.221388 0.000000 0.000000 0.000000
35.788898 56.658574 375.905752 -3.429209 0.497024 -19.078682 1.088371 0.283698 19.025199 0.579204 -0.475095 -0.049202 -0.985920 -0.783434 0.816122 0.000000 0.000000 0.000000 3.840567 0.289643 -0.249193 10.328349 -2.572133 -2.058851 -20.492969 5.147072 4.052169 35.542766 3.506999 -4.837716 0.000000 0.000000 0.000000 0.000000 0.000000 0.000000 1.925899 -2.587933 -0.225689 -15.124991 11.137195 4.839910 9.117333 -18.787590 -3.184461 14.214335 8.464674 -1.473020 0.000000 0.000000 0.000000 0.000000 0.000000 0.000000 15.718683 -11.294374 23.990839 -2.513490 28.282490 -7.197733 14.061404 -27.441764 -41.569829 0.000000 0.000000 0.000000 -4.211401 16.726018 16.448170 12.959155 -24.710626 8.767141 -35.305169 -14.657273 67.587651 0.000000 0.000000 0.000000
